<svg xmlns="http://www.w3.org/2000/svg" viewBox="0 0 1000 223.322"><path d="M371.74 187.858h-28.705v-20.294h-9.665v54.114h9.665v-25.542h28.705v25.542h9.665v-54.114h-9.665v20.294zm83.314-13.588c-5.762-5.384-13.47-8.35-21.705-8.35-17.038 0-30.385 12.553-30.385 28.578 0 16.163 13.347 28.824 30.385 28.824 17.177 0 30.631-12.661 30.631-28.824 0-7.665-3.17-14.849-8.926-20.227zm-1.232 20.228c0 11.108-9.184 20.144-20.473 20.144-11.153 0-20.227-9.036-20.227-20.144 0-11.158 8.885-19.898 20.227-19.898 11.289 0 20.473 8.926 20.473 19.898zm62.086 4.612l-18.6-31.546h-9.813v54.114h9.255v-36.48h.047l17.762 29.959.068.113h1.742l17.829-30.071h.048v36.48h9.665v-54.115h-9.402l-18.6 31.546zm61.955-1.853h20.623v-8.168h-20.623v-13.335h33.746v-8.19h-43.411v54.114h45.383v-8.205h-35.718v-16.216zm80.069-8.982l-1.291-.09c-7.554-.519-14.69-1.01-14.69-6.341 0-6.761 8.285-7.49 11.846-7.49 9.268 0 16.055 3.193 19.316 6.182l.175.16 5.903-6.77-.19-.151c-4.597-3.623-13.869-7.855-24.876-7.855-5.703 0-10.896 1.249-14.621 3.515-4.79 2.914-7.218 7.366-7.218 13.231 0 13.25 13.558 14.19 25.52 15.02 9.931.784 15.314 2.394 15.314 8.643 0 5.36-5.258 8.56-14.064 8.56-11.756 0-19.187-5.5-23.754-9.636l-.175-.158-5.892 6.758.17.153c8.422 7.614 18.067 11.316 29.486 11.316 15.185 0 23.894-6.643 23.894-18.226 0-15.121-14.956-16.144-24.853-16.82zM96.278 92.646c-9.835 10.07-21.666 15.176-35.165 15.176-7.517 0-14.26-1.435-20.044-4.265-5.788-2.831-10.675-6.657-14.526-11.371-3.857-4.721-6.814-10.252-8.789-16.438-1.98-6.187-2.984-12.735-2.984-19.463 0-7.136 1.053-13.762 3.128-19.693 2.069-5.92 5.025-11.104 8.786-15.407a40.737 40.737 0 0113.43-10.107C45.267 8.67 50.957 7.45 57.026 7.45c4.142 0 7.975.531 11.39 1.579 3.414 1.047 6.49 2.427 9.141 4.1 2.645 1.676 4.836 3.61 6.512 5.744 1.675 2.136 2.866 4.328 3.54 6.516l.05.163h11.318l-.13-.318a45.557 45.557 0 00-5.65-10.058C90.902 12.1 88.01 9.41 84.598 7.183c-3.415-2.228-7.465-4-12.036-5.268C67.993.645 62.717 0 56.88 0c-8.463 0-16.277 1.341-23.224 3.986-6.958 2.643-13.002 6.48-17.966 11.402-4.967 4.929-8.865 10.94-11.586 17.865C1.38 40.188 0 48.044 0 56.603c0 7.394 1.11 14.71 3.297 21.745 2.19 7.04 5.618 13.372 10.188 18.818 4.575 5.45 10.497 9.906 17.602 13.24 7.104 3.334 15.684 5.024 25.5 5.024 6.226 0 11.869-.644 16.772-1.913 4.916-1.273 9.254-2.855 12.895-4.702 3.645-1.85 6.732-3.865 9.173-5.988 2.44-2.122 4.317-4.002 5.577-5.587l.13-.163-4.694-4.597-.162.166zm142.992 20.878h66.455v-9.207l-52.706 2.096V60.666h38.973v-8.072h-38.973V9.013l52.706 2.096V1.906H239.27v111.618zm159.222-29.926c0-6.578-1.542-12.047-4.582-16.253-3.033-4.191-6.87-7.737-11.407-10.54-4.531-2.802-9.518-5.188-14.822-7.09-5.281-1.89-10.248-3.916-14.763-6.024-4.496-2.099-8.292-4.544-11.283-7.267-2.961-2.692-4.463-6.321-4.463-10.786 0-2.492.51-4.863 1.514-7.048 1-2.176 2.504-4.099 4.47-5.716 1.966-1.613 4.427-2.934 7.316-3.927 2.89-.993 6.26-1.497 10.015-1.497 6.261 0 11.657 1.456 16.035 4.329 4.354 2.859 6.951 7.425 7.719 13.57l.025.204h10.422l-.04-.266c-.591-3.937-1.932-7.522-3.985-10.654a29.284 29.284 0 00-7.812-8.001c-3.133-2.179-6.723-3.846-10.668-4.955C368.24.564 364.063 0 359.769 0c-4.492 0-8.821.645-12.866 1.917-4.045 1.267-7.661 3.15-10.748 5.595-3.088 2.45-5.57 5.576-7.377 9.29-1.809 3.722-2.726 8.031-2.726 12.807 0 6.269 1.49 11.392 4.427 15.225 2.923 3.817 6.655 7.042 11.093 9.587 4.434 2.545 9.285 4.742 14.421 6.53 5.137 1.795 9.965 3.848 14.349 6.102 4.384 2.254 8.07 5.04 10.957 8.281 2.867 3.224 4.32 7.607 4.32 13.027 0 6.765-2.3 11.777-6.835 14.897-4.563 3.133-10.732 4.722-18.335 4.722-6.064 0-10.993-.874-14.65-2.597-3.648-1.723-6.47-3.812-8.385-6.209-1.92-2.4-3.232-4.909-3.9-7.455-.675-2.581-1.066-4.783-1.16-6.544l-.012-.22h-10.388l.01.242c.197 4.566 1.313 8.767 3.319 12.484 2.003 3.72 4.782 6.923 8.257 9.524 3.464 2.596 7.598 4.639 12.284 6.071 4.68 1.43 9.871 2.154 15.43 2.154 5.649 0 10.815-.751 15.355-2.234 4.537-1.482 8.476-3.634 11.708-6.397 3.23-2.761 5.76-6.154 7.523-10.084 1.76-3.934 2.652-8.347 2.652-13.117zm190.326-71.694c-2.778-3.021-6.318-5.471-10.52-7.28-4.195-1.804-9.187-2.718-14.835-2.718h-34.394v111.618h13.749v-46.29c2.412.694 5.07 1.281 7.906 1.747 2.92.476 6.174.717 9.673.717 5.943 0 11.277-.914 15.851-2.715 4.579-1.8 8.462-4.3 11.543-7.436a31.466 31.466 0 006.983-10.88c1.56-4.085 2.352-8.521 2.352-13.185 0-4.454-.692-8.779-2.056-12.854-1.37-4.097-3.474-7.705-6.252-10.724zm-46-2.548h15.097c4.033 0 7.633.793 10.698 2.357 3.064 1.558 5.641 3.646 7.66 6.206a27.257 27.257 0 014.563 8.66c1.008 3.19 1.52 6.4 1.52 9.537 0 3.033-.463 6.137-1.375 9.225a24.445 24.445 0 01-4.414 8.418c-2.014 2.504-4.592 4.567-7.662 6.133-3.065 1.563-6.812 2.356-11.136 2.356-2.98 0-5.77-.133-8.297-.395-2.43-.252-4.667-.788-6.654-1.594V9.356zm76.625 104.168h66.455v-9.207l-52.707 2.096V60.666h38.973v-8.072h-38.973V9.013l52.707 2.096V1.906h-66.455v111.618zM755.756 1.906h-7.61L704.87 113.208l-.122.316h7.662l12.847-32.71h49.61l14.015 32.71h14.665L755.816 2.047l-.06-.14zm-6.876 18.245l22.723 53.055H728.21l20.612-53.055h.057zM1000 11.109V1.906h-66.45v111.618H1000v-9.207l-52.702 2.096V60.666h38.969v-8.072h-38.97V9.013L1000 11.109zm-91.453 97.951a46.352 46.352 0 01-2.528-1.567l-.01-.007c-.303-.2-3.03-2.018-5.59-4.188-3.037-2.574-9.524-9.494-16.392-16.822-3.76-4.01-7.648-8.159-10.893-11.5-1.764-1.816-5.436-5.597-11.105-9.021-6.11-3.692-9.828-3.758-10.974-3.863a20.007 20.007 0 00-1.025-.063l5.907-6.86 45.879-53.263h-8.577l-53.672 61.38-.075-61.38h-13.748v111.618h13.748V74.316l4.214-4.907a10.67 10.67 0 013.374-.957c4.516-.487 8.28 2.12 11.053 4.444 5.622 4.711 9.474 9.732 13.553 15.047 3.949 5.147 8.032 10.469 14.09 16.028 6.28 5.762 11.038 8.448 16.426 9.273a24.25 24.25 0 003.68.28c2.723 0 5.494-.45 8.275-1.346l.614-.198-.6-.238a46.968 46.968 0 01-5.624-2.682zm-476.13-28.246h49.61l14.016 32.71h14.664L462.977 2.047l-.06-.14h-7.611l-43.276 111.3-.123.316h7.662l12.847-32.71zm23.624-60.663l22.722 53.055h-43.391l20.611-53.055h.058zM202.81 52.08h-66.446V1.22H122.57v111.996h13.794V60.18h66.445v53.037h13.798V1.221H202.81v50.86z" fill="#063f48"/></svg>