<svg id="Layer_1" data-name="Layer 1" xmlns="http://www.w3.org/2000/svg" viewBox="0 0 257.8 140.7"><defs><style>.cls-1{fill:#ee3424;}.cls-2{fill:#fff;}</style></defs><title>ClassicHomesLogo</title><g id="g5"><rect id="rect7" class="cls-1" width="257.8" height="140.7"/><path id="path9" class="cls-2" d="M256.4,139H1.3V1.3H256.5V139ZM3.7,136.6H254.1V3.7H3.7V136.6Z"/><path id="path11" class="cls-2" d="M126,25.4c.3.7,1.7.8,1-.6s-2.3-5.1-6.1-6.3a3.91,3.91,0,0,0-4.3,1.6c-.4.7-1.1,2.9.5,4.3a4.35,4.35,0,0,0,3.6,1c.4-.1.9-.5.6-.8-.5-.4-1.9-1.7-1.1-2.7a1.46,1.46,0,0,1,2-.3,8.91,8.91,0,0,1,3.7,3.6l.1.2Z"/><path id="path13" class="cls-2" d="M130.7,25.4c-.3.7-1.7.8-1-.6s2.3-5.1,6.1-6.3a3.91,3.91,0,0,1,4.3,1.6c.4.7,1.1,2.9-.5,4.3a4.35,4.35,0,0,1-3.6,1c-.4-.1-.9-.5-.6-.8.5-.4,1.9-1.7,1.1-2.7a1.46,1.46,0,0,0-2-.3,8.91,8.91,0,0,0-3.7,3.6l-.1.2Z"/><path id="path15" class="cls-2" d="M128.3,8.8c.7,1.3,2.1,3.2,2.3,5.3a38.88,38.88,0,0,1-2.3,11.7A40,40,0,0,1,126,14.1c.2-2.1,1.6-4,2.3-5.3Z"/><path id="path17" class="cls-2" d="M125.1,26.9c-.8,0-.7.8-.1.8h6.7c.7,0,.7-.8-.1-.8Z"/><path id="path19" class="cls-2" d="M129.9,33.6c-1.1-1.1-.9-4.6-.9-4.6h-1.3s.2,3.6-.9,4.6Z"/><path id="path21" class="cls-2" d="M130.3,31.3a12,12,0,0,1-.6-2.3.36.36,0,0,1,.7.1A7.1,7.1,0,0,0,131,31c.3.5-.4.9-.7.3Z"/><path id="path23" class="cls-2" d="M126.4,31.3a12.87,12.87,0,0,0,.6-2.2c0-.3-.5-.6-.7,0a7.1,7.1,0,0,1-.6,1.9c-.3.5.4.9.7.3Z"/><path id="path25" class="cls-2" d="M190.6,93.2H64.8V91.9H190.6Zm0-2.9H64.8V89H190.6Zm44.8-56.1H131.9V32.9H235.4Zm-111.6,0H21.8V32.9h102Z"/><path id="path27" class="cls-2" d="M59.8,46.3a1.37,1.37,0,0,1,1-.6c.7,0,1.2.8,1.2,1.7v.2l-.3,3v1.2c0,1.6.1,3.7.2,5.5.2,2.4.3,3,.3,3.3,0,1.4-.4,2-1.1,2s-.8-.2-1.5-2.2C56.3,50.8,49,44.3,41.3,44.3c-9.6,0-16.2,8.6-16.2,21,0,13.9,7.9,24.1,18.6,24.1,5.2,0,10.6-2.7,14.9-7.3.9-1,1.3-1.3,1.7-1.3a.82.82,0,0,1,.8.9c0,1.1-1.3,3-3.3,5.1A24.08,24.08,0,0,1,40.2,94c-13.9,0-24-10.4-24-24.6,0-15.3,11.1-27.7,24.8-27.7,4.3,0,8.5,1.2,13.8,3.9,2.5,1.3,3.2,1.6,3.8,1.6a.89.89,0,0,0,.8-.4l.4-.5Zm-1.5,8.8.8,1.4.4.6c-.4-4.5-3.8-8.8-7.6-9.5a24.15,24.15,0,0,1,6.4,7.5ZM17.1,69.2c0,8.3,3.5,15.6,9.5,19.9,3.3,2.4,7.7,4,10.8,4a13.57,13.57,0,0,0,1.8-.1C26.5,91.3,18.6,82.1,18.6,69.2a28,28,0,0,1,5.1-16.4A30.29,30.29,0,0,1,30.4,46c-7.9,3.3-13.3,12.9-13.3,23.2Z"/><path id="path29" class="cls-2" d="M237.9,46.6a1.37,1.37,0,0,1,1-.6c.7,0,1.2.8,1.2,1.7v.2l-.3,3v1.2c0,1.6.1,3.7.2,5.5.2,2.3.3,3,.3,3.3,0,1.4-.4,2-1.1,2s-.8-.2-1.5-2.2c-3.3-9.6-10.6-16.1-18.3-16.1-9.6,0-16.2,8.6-16.2,21,0,13.9,7.9,24.1,18.6,24.1,5.2,0,10.6-2.7,14.9-7.3.9-1,1.3-1.3,1.7-1.3a.82.82,0,0,1,.8.9c0,1.1-1.3,3-3.3,5.1a24.08,24.08,0,0,1-17.6,7.2c-13.9,0-24-10.4-24-24.6,0-15.3,11.1-27.7,24.8-27.7,4.3,0,8.5,1.2,13.8,3.9,2.5,1.3,3.2,1.6,3.8,1.6a.89.89,0,0,0,.8-.4l.4-.5Zm-1.5,8.7.8,1.4.4.6c-.4-4.5-3.8-8.8-7.6-9.5a26.65,26.65,0,0,1,6.4,7.5ZM195.2,69.4c0,8.3,3.5,15.6,9.5,19.9,3.3,2.4,7.7,4,10.8,4a13.57,13.57,0,0,0,1.8-.1c-12.7-1.7-20.6-10.9-20.6-23.8A28,28,0,0,1,201.8,53a30.29,30.29,0,0,1,6.7-6.8c-7.9,3.3-13.3,12.9-13.3,23.2Z"/><path id="path31" class="cls-2" d="M70,52.1c0-4.1-1.1-5.7-4.4-6.2-1-.2-1.5-.5-1.5-1a.71.71,0,0,1,.8-.7,3.75,3.75,0,0,1,1,.1,37.17,37.17,0,0,0,6.2.4,33.88,33.88,0,0,0,5.8-.5,2,2,0,0,1,.7-.1.71.71,0,0,1,.8.7c0,.5-.2.7-1.4.9-1.9.4-2.5,1.5-2.5,4.4V72.5c0,3.5.7,4.3,3.7,4.3a19.56,19.56,0,0,0,6.9-1.1,12,12,0,0,0,5.4-4.4c.4-.7.6-.9.9-.9s.6.3.6.9a9.86,9.86,0,0,1-2.8,6.2c-1.4,1.3-2.9,1.7-5.5,1.7-1,0-2.3-.1-4.1-.2l-3.5-.2c-1.1-.1-2.3-.1-3.6-.1s-2.4.1-3.3.1l-2.3.2a1.27,1.27,0,0,1-.6.1c-.8,0-1.1-.2-1.1-.7a.84.84,0,0,1,.4-.7l1.1-.5c1.4-.6,2-2,2-4.8V52.1ZM84.2,77.4a7.24,7.24,0,0,0,7.1-4.7c-2.3,2.7-4.4,3.8-9,4.6a15.77,15.77,0,0,0,1.9.1ZM70.7,52.3V71.7c0,3.2-.3,4.1-1.6,5.6,2.1-.9,2.5-1.7,2.5-5.7V52.3c0-4.1-.7-5.5-2.9-5.9,1.7,1.7,2,2.6,2,5.9Z"/><path id="path33" class="cls-2" d="M110.8,43.8l12.5,29.3.4,1a4.89,4.89,0,0,0,3.5,3.2c1.4.4,1.6.6,1.6,1.1s-.4.7-.9.7c-.2,0-.6-.1-1-.1a38.8,38.8,0,0,0-5.6-.4,50.85,50.85,0,0,0-5.5.4,3.75,3.75,0,0,1-1,.1c-.5,0-.8-.3-.8-.6,0-.5.1-.6,1.5-1.1a3,3,0,0,0,1.9-2.9,5.93,5.93,0,0,0-.4-1.7l-1.9-4.6c-.5-1.1-.6-1.2-1.4-1.4a44,44,0,0,0-4.7-.2c-4.8,0-6.6.2-7.1.7a11.78,11.78,0,0,0-1.8,3.5,10.93,10.93,0,0,0-.7,3.2,3.48,3.48,0,0,0,3.6,3.4c1.4.1,1.7.3,1.7.8s-.4.7-1.2.7a2,2,0,0,1-.7-.1l-2.3-.2a19.88,19.88,0,0,0-2.2-.2,26.05,26.05,0,0,0-3.4.3,6.15,6.15,0,0,1-1.3.1c-.9,0-1.2-.2-1.2-.8a1,1,0,0,1,.5-.8l1-.5a8.24,8.24,0,0,0,3.2-4.2c.4-1,1.2-3.1,2.5-6.3,1.1-3,3.2-7.5,5.9-13.6l3.2-7,.9-2.1h1.2v.3ZM97.1,74.3a9.57,9.57,0,0,1-2.8,3.4c2.3-.4,3.1-1.5,3.1-3.9l-.3.5Zm21.7,0c0-1.1-.2-1.7-1.2-4.2l-8-18.9c-.2-.3-.3-.4-.5-.4-.2.2-.4.2-.4.4s0,.3.1.4l8.7,20.3a6.44,6.44,0,0,1,.6,2.4,5.55,5.55,0,0,1-1.1,2.9c1.2-.4,1.8-1.3,1.8-2.9Zm-9.9-20.5c-.4-.9-.5-1-.7-1s-.4.2-.9,1.4l-1.2,2.7a34.11,34.11,0,0,0-2.6,6.7c0,.6.5.9,1.6.9l3.4.1H112c1,0,1.2-.2,1.2-.6a2.54,2.54,0,0,0-.2-.7l-.3-.6-1.1-2.8-1.5-3.4-1.2-2.7Z"/><path id="path35" class="cls-2" d="M130.4,76.2a37.32,37.32,0,0,0-.8-4.1,21.51,21.51,0,0,1-.9-4.2c0-.8.3-1.3.8-1.3s.7.4.9,1.2a13.12,13.12,0,0,0,2.9,5.6c2.2,2.7,4.9,4.3,7.2,4.3a6.6,6.6,0,0,0,6.6-6.3c0-2.5-1.1-4-4.3-5.6l-7.6-3.9c-3.9-2-5.6-4.5-5.6-8.4,0-5.6,4-9.8,9.5-9.8a13.72,13.72,0,0,1,5.8,1.4l1.2.6a1.49,1.49,0,0,0,.9.2,1.45,1.45,0,0,0,.7-.2l.5-.4a1.1,1.1,0,0,1,.6-.3c.4,0,.6.3.6.8a6.27,6.27,0,0,0-.1,1.1v.5a28.84,28.84,0,0,0,.3,3.9l.3,2.4a4.33,4.33,0,0,0,.1.5c0,.7-.3,1-.7,1s-.7-.4-1-1.4c-1.1-4.6-5.5-8.5-9.6-8.5a5.39,5.39,0,0,0-5.6,5.2c0,2,1.4,3.7,4.3,5l5.7,2.7c5,2.4,7.3,5.7,7.3,10.3a10.65,10.65,0,0,1-10.8,10.9,18.87,18.87,0,0,1-9.3-2.6l.1-.6Zm-.3-4.5c.3,1.1.5,2.1.8,3.7.2,1.2.4,1.5.9,1.5.2,0,.3-.2.3-.5a32.21,32.21,0,0,0-1.9-6.4,6.39,6.39,0,0,0-.4-1,6.37,6.37,0,0,1-.2-.7,9.54,9.54,0,0,0,.5,3.4Zm.1-18.3c0,3.7,1.6,6,5.5,8l6.7,3.4c4,2,5.4,3.7,5.4,6.4a7.88,7.88,0,0,1-.4,2.3,5,5,0,0,0,1-3.1c0-2.8-1.7-4.6-5.7-6.7l-6.6-3.2c-3.5-1.7-5.3-4.3-5.3-7.7,0-1.7.4-3,1.7-5.7a9.45,9.45,0,0,0-2.3,6.3Zm17-3.7.8,1.1.4.5a5.65,5.65,0,0,0-4.9-5.2,15.89,15.89,0,0,1,3.7,3.6Z"/><path id="path37" class="cls-2" d="M155.1,76.2a37.32,37.32,0,0,0-.8-4.1,21.51,21.51,0,0,1-.9-4.2c0-.8.3-1.3.8-1.3s.7.4.9,1.2a13.12,13.12,0,0,0,2.9,5.6c2.2,2.7,4.9,4.3,7.2,4.3a6.6,6.6,0,0,0,6.6-6.3c0-2.5-1.1-4-4.3-5.6l-7.6-3.9c-3.9-2-5.6-4.5-5.6-8.4,0-5.6,4-9.8,9.5-9.8a13.72,13.72,0,0,1,5.8,1.4l1.2.6a1.49,1.49,0,0,0,.9.2,1.45,1.45,0,0,0,.7-.2l.5-.4a1.1,1.1,0,0,1,.6-.3c.4,0,.6.3.6.8a6.27,6.27,0,0,0-.1,1.1v.5a28.84,28.84,0,0,0,.3,3.9l.3,2.4a4.33,4.33,0,0,0,.1.5c0,.7-.3,1-.7,1s-.7-.4-1-1.4c-1.1-4.6-5.5-8.5-9.6-8.5a5.39,5.39,0,0,0-5.6,5.2c0,2,1.4,3.7,4.3,5l5.7,2.7c5,2.4,7.3,5.7,7.3,10.3a10.65,10.65,0,0,1-10.8,10.9,18.87,18.87,0,0,1-9.3-2.6l.1-.6Zm-.3-4.5c.3,1.1.5,2.1.8,3.7.2,1.2.4,1.5.9,1.5.2,0,.3-.2.3-.5a32.21,32.21,0,0,0-1.9-6.4,6.39,6.39,0,0,0-.4-1,2.54,2.54,0,0,0-.2-.7,7.7,7.7,0,0,0,.5,3.4Zm.1-18.3c0,3.7,1.6,6,5.5,8l6.7,3.4c4,2,5.4,3.7,5.4,6.4a7.88,7.88,0,0,1-.4,2.3,5,5,0,0,0,1-3.1c0-2.8-1.7-4.6-5.7-6.7l-6.6-3.2c-3.5-1.7-5.3-4.3-5.3-7.7,0-1.7.4-3,1.7-5.7a9,9,0,0,0-2.3,6.3Zm16.9-3.7.8,1.1.4.5a5.65,5.65,0,0,0-4.9-5.2,15.89,15.89,0,0,1,3.7,3.6Z"/><path id="path39" class="cls-2" d="M182,51.3c0-3.6-.9-4.6-4.8-5.5-.7-.2-1-.4-1-.8s.4-.8,1-.8h.5a37.68,37.68,0,0,0,6.3.4,36.85,36.85,0,0,0,5.8-.4h.5c.8,0,1.1.3,1.1.8s-.1.7-1.3.9c-1.8.3-2.5,1.6-2.5,4.2V70.5c0,5.3,1,6.8,4.9,7.2.7.1,1,.3,1,.8s-.4.7-1.1.7c-.2,0-.9-.1-1.6-.2-2.7-.2-3.3-.3-5.9-.3-1.3,0-2.2.1-2.9.1l-2.1.2h-.6c-.9,0-1.2-.2-1.2-.7a.67.67,0,0,1,.5-.7l.9-.3c1.8-.5,2.5-2.2,2.5-5.9V51.3Zm.6-.4V71.7c0,2.9-.3,4.1-1.5,5.2,1.9-.7,2.3-1.8,2.4-5.4V51.1c0-3.1-.8-4.4-3-5a5.22,5.22,0,0,1,2.1,4.8Z"/><g id="g41"><path id="path43" class="cls-2" d="M107.7,105.9a8.6,8.6,0,0,0-8.8,8.7c0,4.2,3,8.4,8.8,8.4a8.41,8.41,0,0,0,8.6-8.6,8.19,8.19,0,0,0-8.6-8.5Zm.3,15.9c-2.3,0-6.2-1.7-6.2-7.9,0-5,3-6.7,5.5-6.7,4.5,0,6.1,4.3,6.1,8-.1,4.9-2.9,6.6-5.4,6.6Z"/><path id="path45" class="cls-2" d="M90.3,121.6c-1.1-.1-1.2-.1-1.2-2.8v-8.6c0-2.6.1-2.7,1.2-2.8h.6a.76.76,0,0,0,.2-.5.47.47,0,0,0-.3-.5h-.2c-1.2.1-2,.1-2.8.1a28.1,28.1,0,0,1-2.9-.1h-.2a.68.68,0,0,0-.3.5.76.76,0,0,0,.2.5l.6.1c1.2.1,1.2.2,1.2,2.8v2.8c0,.5,0,.5-1,.5H78.5c-1,0-1,0-1-.5v-2.9c0-2.6.1-2.7,1.2-2.8h.6a.76.76,0,0,0,.2-.5.47.47,0,0,0-.3-.5H79c-1.1,0-1.9.1-2.8.1H72.9a.68.68,0,0,0-.3.5.76.76,0,0,0,.2.5l.7.1c1,.1,1.2.2,1.2,2.8V119c0,2.5-.1,2.6-1.2,2.8l-.5.1-.1.1a.85.85,0,0,0-.2.6c0,.2.1.4.3.4h2.9c1,0,1.8,0,3,.1h.2a.68.68,0,0,0,.3-.5.76.76,0,0,0-.2-.5l-.8-.1c-1.1-.1-1.2-.2-1.2-2.8v-3.4c0-.5,0-.5,1-.5h6.9c1,0,1,0,1,.5v3.7c0,2.3-.1,2.3-1.3,2.5l-.5.1-.1.1a.85.85,0,0,0-.2.6c0,.2.1.4.3.4h.2c1.2-.1,2-.1,2.9-.1s1.7,0,2.9.1h.2a.68.68,0,0,0,.3-.5.76.76,0,0,0-.2-.5l-.3-.6Z"/><path id="path47" class="cls-2" d="M164.1,118.8h0a6.53,6.53,0,0,1-1.7,2.3c-.5.3-1.2.3-3,.3-2,0-2.5-.2-2.7-.5a3.85,3.85,0,0,1-.4-2.3v-3.8h1.9a8.16,8.16,0,0,1,1.8.1.88.88,0,0,1,.6.7l.2.9.1.1c.1.2.4.2.5.2a.55.55,0,0,0,.5-.3v-1.1c0-.4-.1-.9-.1-1.4a7.57,7.57,0,0,1,.1-1.5v-1.2a.55.55,0,0,0-.5-.3c-.1,0-.4,0-.5.2h0l-.2,1c-.1.6-.2.6-.4.7a13.9,13.9,0,0,1-2,.1h-1.9v-5.9h2.1a14.17,14.17,0,0,1,2.3.1c1.1.3,1.3.9,1.6,2v.2a.76.76,0,0,0,.4.2,1.42,1.42,0,0,0,.6-.2v-.5a11.41,11.41,0,0,0-.4-2.9l-.1-.2-.2.1a23.79,23.79,0,0,1-3.2.1H155c-.9,0-1.7,0-2.8-.1H152a.68.68,0,0,0-.3.5.76.76,0,0,0,.2.5l.5.1c1.2.1,1.2.3,1.2,2.8v8.6c0,2.6-.1,2.7-1.3,2.8l-.9.1-.1.1a.56.56,0,0,0-.1.6c0,.2.1.4.3.4h.4c1.3,0,2.1-.1,3.1-.1h2.2c2,0,4.1,0,6.4.1h.2l.1-.1a27.16,27.16,0,0,0,1.1-3.4v-.2a1,1,0,0,0-.9.1Z"/><path id="path49" class="cls-2" d="M178.7,113.5l-1.9-1.2a3.39,3.39,0,0,1-1.9-2.7c0-.9.3-2.4,2.6-2.4a2.89,2.89,0,0,1,3,2.5v.1a.52.52,0,0,0,.4.2.71.71,0,0,0,.6-.3v-.2a12.1,12.1,0,0,0-.4-3l-.1-.2h-.2c-.2,0-.6-.1-.8-.1a8,8,0,0,0-2.3-.3c-3,0-5.2,1.8-5.2,4.4a5.33,5.33,0,0,0,2.7,4.3l2.3,1.5a3.43,3.43,0,0,1,1.9,3.2c0,1.2-.7,2.5-2.8,2.5-2.4,0-3.4-1.8-3.9-3.4v-.1a.52.52,0,0,0-.4-.2.86.86,0,0,0-.6.3l-.1.1v.1a10.81,10.81,0,0,0,.7,3.5v.1h.1a8.4,8.4,0,0,0,3.9.9c3.2,0,5.4-1.9,5.4-4.7.1-2-.9-3.6-3-4.9Z"/><path id="path51" class="cls-2" d="M144.1,121.6l-.9-.1c-.8-.1-.9-.4-.9-1.5v-.2c-.1-2.7-.2-6.1-.2-8.6v-1.9c0-1.6.2-1.9,1.5-2l.6-.1h.1c.2-.1.2-.4.2-.5s0-.4-.2-.5h-.2c-.7,0-1.5.1-2.1.1a12.83,12.83,0,0,1-1.8-.1h-.3v.3c0,1-.7,2.3-1.7,4.4l-2.5,5c-.5,1-1,2-1.5,2.9l-1.2-2.4-3-6a9.2,9.2,0,0,1-1.2-3.8v-.3h-.3a14.8,14.8,0,0,1-2,.1,13.43,13.43,0,0,1-1.9-.1h-.2c-.1.1-.3.2-.3.4a1.27,1.27,0,0,0,.1.6l.1.1.5.1c1.3.2,1.4.4,1.4,1.8,0,1.2-.1,3.2-.3,5.4-.1,2.4-.3,3.7-.4,5.3s-.4,1.6-1.3,1.7l-.6.1h-.1a.52.52,0,0,0-.2.4,1.42,1.42,0,0,0,.2.6l.1.1h.1c.8,0,1.7-.1,2.4-.1a24.37,24.37,0,0,1,2.7.1h.2a1.38,1.38,0,0,0,.3-.4.73.73,0,0,0-.2-.6l-.1-.1-1-.1c-.7-.1-.8-.1-.8-2s.1-3.9.2-5.6v-.4c.1-1,.1-1.9.2-2.9a6.12,6.12,0,0,1,.5,1.2l.6,1.5,2.5,5.3a34.35,34.35,0,0,1,1.8,4.1v.1a.4.4,0,0,0,.4.2.55.55,0,0,0,.5-.3c.4-1,1.4-3.2,2.6-5.5l2.1-4.2c.2-.4.5-1,.8-1.5.1-.3.3-.5.4-.8l.1,9.1c0,1.6,0,1.7-1,1.8l-.8.1-.1.1a.73.73,0,0,0,0,1l.1.1h.1c1,0,2-.1,2.9-.1s1.8,0,2.8.1h.2a1.38,1.38,0,0,0,.3-.4c-.1-.7-.1-.9-.3-1.1Z"/></g><g id="g53"><path id="path55" class="cls-2" d="M235.2,99.3a2.65,2.65,0,0,0,1.4.3q.9,0,.9-.6c0-.3-.3-.5-.9-.8-.9-.3-1.5-.8-1.5-1.6s.8-1.6,2-1.6a2.65,2.65,0,0,1,1.4.3l-.3,1a2.43,2.43,0,0,0-1.1-.3c-.5,0-.8.2-.8.5s.3.5,1,.8c1,.4,1.4.8,1.4,1.6s-.7,1.7-2.2,1.7a4.91,4.91,0,0,1-1.5-.3l.2-1Z"/><path id="path57" class="cls-2" d="M244,98.5V96.3h0c-.2.7-.4,1.5-.6,2.1l-.7,2.1h-1l-.6-2.1a12.91,12.91,0,0,1-.5-2.1h0c0,.7-.1,1.6-.1,2.2l-.1,2.1h-1.1l.3-5.4h1.6l.5,1.8c.2.6.3,1.3.5,1.9h0a13.32,13.32,0,0,1,.5-1.9l.6-1.8h1.6l.3,5.4H244V98.5Z"/></g></g></svg>