<?xml version="1.0" encoding="UTF-8"?>
<svg width="2534px" height="674px" viewBox="0 0 2534 674" version="1.1" xmlns="http://www.w3.org/2000/svg" xmlns:xlink="http://www.w3.org/1999/xlink">
    <title>SIG_Logo_Black</title>
    <g id="Page-1" stroke="none" stroke-width="1" fill="none" fill-rule="evenodd">
        <g id="SIG_Logo_Black" fill="#000000" fill-rule="nonzero">
            <g id="Group">
                <path d="M775.42,294.59 C735.01,281.12 712.56,270.35 712.56,245.2 C712.56,225.9 730.97,211.08 759.26,211.08 C792.04,211.08 819.87,234.43 835.14,266.3 L840.53,265.4 L838.29,216.01 C823.02,209.72 795.64,204.78 770.04,204.78 C708.98,204.78 682.49,236.21 682.49,270.33 C682.49,310.74 711.67,323.76 758.82,338.13 C797.88,350.25 820.78,361.48 820.78,390.21 C820.78,410.86 802.82,429.27 774.98,428.82 C735.02,428.37 702.69,398.29 683.39,355.19 L678.9,356.08 L683.39,414.9 C700.45,426.12 731.43,436 764.21,436 C829.31,436 850.87,397.39 850.87,363.26 C850.87,317.46 811.36,306.69 775.44,294.56 L775.42,294.59 Z" id="Path"></path>
                <path d="M946.36,375.41 L946.36,207.49 L941.87,203.9 L882.61,229.94 L882.61,236.23 C893.83,241.17 900.57,245.66 900.57,272.15 L900.57,375.42 C900.57,407.75 897.43,421.22 882.61,426.16 L882.61,432.45 L964.33,432.45 L964.33,426.16 C949.51,421.22 946.37,407.75 946.37,375.42 L946.36,375.41 Z" id="Path"></path>
                <path d="M920.77,188.63 C937.83,188.63 951.3,175.16 951.3,158.1 C951.3,141.04 938.73,127.12 920.77,127.12 C902.81,127.12 890.24,140.59 890.24,158.1 C890.24,175.61 903.71,188.63 920.77,188.63 Z" id="Path"></path>
                <path d="M1135.6,399.2 L1075.44,395.61 C1034.13,393.37 1027.85,384.38 1027.85,375.86 C1027.85,368.23 1033.24,363.74 1040.87,358.8 C1054.79,364.19 1070.5,366.43 1084.42,366.43 C1121.24,366.43 1175.12,331.41 1175.12,281.12 C1175.12,242.51 1152.67,220.51 1123.93,211.08 C1128.42,204.35 1132.91,198.96 1137.4,195.36 C1162.99,203.89 1176.46,207.93 1187.24,207.93 C1206.09,207.93 1215.53,188.63 1215.53,180.54 C1215.53,172.01 1203.41,168.42 1189.49,168.42 C1170.63,168.42 1155.36,174.26 1141,184.58 C1131.57,190.86 1123.49,199.4 1117.21,208.82 C1106.88,206.13 1095.66,204.78 1084.43,204.78 C1035.49,204.78 992.84,243.4 992.84,290.54 C992.84,324.66 1011.25,344.86 1034.59,356.09 C1010.35,370.46 998.67,382.58 998.67,399.19 C998.67,418.05 1009.89,428.37 1028.75,433.76 C993.73,454.86 973.52,478.21 973.52,502.45 C973.52,544.66 1017.07,556.78 1044.46,556.78 C1127.07,556.78 1204.3,491.23 1204.3,442.29 C1204.3,410.41 1181.85,401.88 1135.6,399.19 L1135.6,399.2 Z M1069.6,211.53 C1110.01,207.49 1133.8,266.75 1133.8,306.71 C1133.8,333.2 1124.37,358.79 1093.84,358.79 C1052.53,358.79 1034.57,302.67 1034.57,265.85 C1034.57,238.91 1042.65,214.67 1069.59,211.53 L1069.6,211.53 Z M1076.33,529.86 C1041.31,529.86 1010.33,516.39 1010.33,480.47 C1010.33,465.65 1016.17,449.94 1036.37,435.57 C1044.9,436.92 1054.78,438.26 1065.55,438.71 L1137.84,442.3 C1173.31,444.1 1182.74,452.63 1182.74,466.99 C1182.74,498.42 1139.19,529.85 1076.33,529.85 L1076.33,529.86 Z" id="Shape"></path>
                <path d="M1408.8,286.96 L1408.8,375.41 C1408.8,407.74 1405.65,421.21 1390.84,426.15 L1390.84,432.44 L1472.56,432.44 L1472.56,426.15 C1457.74,421.21 1454.6,407.74 1454.6,375.41 L1454.6,278.88 C1454.6,226.35 1426.76,204.79 1385.45,204.79 C1350.43,204.79 1318.1,225 1293.41,245.2 L1293.41,207.49 L1288.92,203.9 L1229.66,229.94 L1229.66,236.23 C1240.88,241.17 1247.62,245.66 1247.62,272.15 L1247.62,375.42 C1247.62,407.75 1244.48,421.22 1229.66,426.16 L1229.66,432.45 L1311.37,432.45 L1311.37,426.16 C1296.55,421.22 1293.41,407.75 1293.41,375.42 L1293.41,252.85 C1317.65,233.1 1336.96,222.77 1358.06,222.77 C1391.28,222.77 1408.8,246.57 1408.8,286.97 L1408.8,286.96 Z" id="Path"></path>
                <path d="M1561.24,436.92 C1607.04,436.92 1635.77,393.82 1647,343.08 L1647,414.47 C1647,426.14 1653.29,432.43 1664.96,432.43 L1709.86,432.43 L1709.86,426.14 C1695.04,421.2 1691.9,407.73 1691.9,375.4 L1691.9,288.75 C1691.9,230.38 1624.1,205.69 1582.35,205.69 C1543.73,205.69 1519.49,210.18 1519.49,242.06 C1519.49,250.59 1523.53,259.12 1534.76,259.12 C1551.37,259.12 1577.86,238.02 1608.84,214.67 C1650.15,227.69 1647.01,256.42 1647.01,286.06 L1647.01,287.4 L1597.17,301.77 C1541.5,317.49 1500.19,331.85 1500.19,378.1 C1500.19,415.82 1528.03,436.92 1561.25,436.92 L1561.24,436.92 Z M1598.96,307.61 L1647,293.69 L1647,301.77 C1646.55,342.18 1627.69,404.14 1583.69,404.14 C1563.04,404.14 1541.94,392.02 1541.94,362.39 C1541.94,325.12 1577.86,313.45 1598.96,307.61 Z" id="Shape"></path>
                <path d="M1862.38,391.57 L1857.89,387.08 C1843.07,405.49 1827.81,409.53 1817.93,409.53 C1798.18,409.53 1787.85,397.41 1787.85,369.57 L1787.85,215.11 L1855.65,215.11 L1857.44,207.93 L1787.85,207.93 L1787.85,148.67 L1780.67,148.67 L1713.32,207.93 L1713.32,215.11 L1742.06,215.11 L1742.06,369.12 C1742.06,417.61 1758.23,436.92 1788.76,436.92 C1815.7,436.92 1838.6,418.96 1862.39,391.57 L1862.38,391.57 Z" id="Path"></path>
                <path d="M2099.82,375.41 L2099.82,207.49 L2095.33,203.9 L2036.06,229.94 L2036.06,236.23 C2047.29,241.17 2054.02,245.66 2054.02,272.15 L2054.02,384.84 C2032.02,406.84 2010.02,418.97 1989.82,418.97 C1955.25,418.97 1947.62,395.17 1947.62,347.13 L1947.62,207.5 L1943.13,203.91 L1883.87,229.95 L1883.87,236.24 C1895.09,241.18 1901.83,245.67 1901.83,272.16 L1901.83,352.98 C1901.83,407.76 1921.59,436.94 1969.18,436.94 C1997.47,436.94 2028.44,418.98 2054.04,394.29 L2054.04,414.49 C2054.04,426.16 2060.32,432.45 2072,432.45 L2117.8,432.45 L2117.8,426.16 C2102.98,421.22 2099.84,407.75 2099.84,375.42 L2099.82,375.41 Z" id="Path"></path>
                <path d="M2297.41,204.79 C2275.86,204.79 2258.8,210.63 2242.19,222.3 C2227.82,232.18 2216.15,246.1 2209.41,261.81 L2209.41,207.48 L2204.92,203.89 L2145.65,229.93 L2145.65,236.22 C2156.88,241.16 2163.61,245.65 2163.61,272.14 L2163.61,375.41 C2163.61,407.74 2160.46,421.21 2145.65,426.15 L2145.65,432.44 L2227.37,432.44 L2227.37,426.15 C2212.55,421.21 2209.41,407.74 2209.41,375.41 L2209.41,286.06 C2210.76,263.61 2226.02,243.41 2237.25,233.98 C2265.99,242.96 2283.05,247.45 2295.62,247.45 C2316.27,247.45 2326.15,228.14 2326.15,218.27 C2326.15,208.4 2312.68,204.8 2297.42,204.8 L2297.41,204.79 Z" id="Path"></path>
                <path d="M2529.39,365.08 C2510.53,386.18 2484.94,400.55 2451.71,400.55 C2394.69,400.55 2358.77,358.79 2358.77,299.98 C2358.77,295.04 2359.22,290.55 2359.67,285.61 L2529.83,285.61 C2529.83,246.55 2497.5,204.79 2436.89,204.79 C2376.28,204.79 2318.81,252.38 2318.81,328.71 C2318.81,405.04 2375.38,436.92 2425.22,436.92 C2475.06,436.92 2512.77,401 2533.43,369.57 L2529.39,365.08 L2529.39,365.08 Z M2422.98,212.88 C2453.96,213.33 2478.66,242.51 2484.49,279.33 L2360.12,279.33 C2365.51,244.31 2384.81,212.43 2422.98,212.88 L2422.98,212.88 Z" id="Shape"></path>
                <path d="M1298.24,521.94 L1298.78,522.12 C1305.11,524.23 1306.94,529.57 1306.94,545.95 L1306.94,587.13 L1232.83,587.13 L1232.83,545.95 C1232.83,529.58 1234.66,524.24 1240.99,522.12 L1241.53,521.94 L1241.53,517.53 L1199.48,517.53 L1199.48,521.94 L1200.02,522.12 C1206.36,524.23 1208.19,529.58 1208.19,545.95 L1208.19,642.96 C1208.19,659.33 1206.36,664.67 1200.02,666.79 L1199.48,666.97 L1199.48,671.38 L1241.53,671.38 L1241.53,666.97 L1240.99,666.79 C1234.66,664.68 1232.83,659.34 1232.83,642.96 L1232.83,592.65 L1306.94,592.65 L1306.94,642.96 C1306.94,659.33 1305.11,664.67 1298.78,666.79 L1298.24,666.97 L1298.24,671.38 L1340.29,671.38 L1340.29,666.97 L1339.75,666.79 C1333.42,664.68 1331.59,659.34 1331.59,642.96 L1331.59,545.95 C1331.59,529.58 1333.42,524.24 1339.75,522.12 L1340.29,521.94 L1340.29,517.53 L1298.24,517.53 L1298.24,521.94 Z" id="Path"></path>
                <path d="M1449.5,515.57 C1403.91,515.57 1370.83,548.38 1370.83,593.59 C1370.83,648.38 1411.61,673.34 1449.5,673.34 C1469.1,673.34 1488.43,666.37 1502.55,654.23 C1519.16,639.93 1527.95,619.41 1527.95,594.9 C1527.95,542.83 1488.49,515.58 1449.51,515.58 L1449.5,515.57 Z M1504.39,612.12 C1505.57,629.41 1501.5,643.98 1492.93,653.15 C1485.59,661.01 1475.15,665 1461.89,665 C1424.26,665 1397.9,621.01 1395.04,580.26 C1393.73,560.94 1398.09,545.32 1407.65,535.09 C1415.16,527.06 1425.71,522.82 1438.18,522.82 C1467.22,522.82 1500.29,554.12 1504.38,612.13 L1504.39,612.12 Z" id="Shape"></path>
                <path d="M1638.97,605.93 L1585.95,517.91 L1585.71,517.52 L1551.84,517.52 L1551.84,521.93 L1552.37,522.12 C1561.61,525.34 1566.62,532.17 1566.62,559 L1566.62,642.96 C1566.62,659.33 1564.79,664.68 1558.47,666.79 L1557.92,666.97 L1557.92,671.39 L1588.67,671.39 L1588.67,666.96 L1588.11,666.79 C1577.52,663.53 1572.14,656.93 1572.14,629.92 L1572.14,542.49 L1625.27,629.68 L1625.5,630.06 L1631.41,630.06 L1682.35,540.69 L1682.35,642.96 C1682.35,659.33 1680.52,664.68 1674.2,666.79 L1673.65,666.97 L1673.65,671.39 L1715.7,671.39 L1715.7,666.98 L1715.16,666.8 C1708.83,664.69 1707,659.35 1707,642.97 L1707,559.01 C1707,532.18 1712.01,525.35 1721.26,522.13 L1721.79,521.94 L1721.79,517.53 L1689.64,517.53 L1638.96,605.94 L1638.97,605.93 Z" id="Path"></path>
                <path d="M1867.64,638.11 C1860.18,658.13 1847.29,666.3 1823.14,666.3 L1802.26,666.3 C1795.76,666.3 1792.18,662.72 1792.18,656.22 L1792.18,591.33 L1812.26,591.33 C1839.27,591.33 1845.87,596.71 1849.14,607.3 L1849.31,607.86 L1853.73,607.86 L1853.73,569.72 L1849.31,569.72 L1849.14,570.28 C1845.87,580.87 1839.27,586.25 1812.26,586.25 L1792.18,586.25 L1792.18,522.59 L1816.84,522.59 C1842.26,522.59 1854.73,530 1862.86,549.94 L1863.12,550.57 L1867.28,549.61 L1864.84,518.25 L1864.78,517.52 L1758.85,517.52 L1758.85,521.93 L1759.39,522.11 C1765.72,524.22 1767.55,529.57 1767.55,545.94 L1767.55,642.95 C1767.55,659.32 1765.72,664.66 1759.39,666.78 L1758.85,666.96 L1758.85,671.37 L1870.46,671.37 L1872.03,638.85 L1872.06,638.13 L1867.88,637.49 L1867.66,638.1 L1867.64,638.11 Z" id="Path"></path>
                <path d="M1964.52,581.25 L1961.47,580.05 C1944.35,573.25 1924.95,565.54 1924.95,547.58 C1924.95,531.66 1937.13,520.97 1955.26,520.97 C1976.68,520.97 1994.53,533.71 2003.03,555.05 L2003.32,555.77 L2006.98,554.44 L2006.1,525.59 L2006.1,525.11 C2006.1,525.11 2005.66,524.9 2005.66,524.9 C1993.6,518.87 1979.04,515.68 1963.54,515.68 C1928.56,515.68 1906.84,532.74 1906.84,560.2 C1906.84,585.56 1925.62,593.39 1947.37,602.47 L1951.15,603.99 C1967.98,610.66 1993.42,620.76 1993.42,640.46 C1993.42,658.74 1978.83,667.07 1965.29,667.07 C1939.44,667.07 1918.78,651.25 1908.61,623.65 L1908.39,623.04 L1904.22,623.68 L1905.11,657.01 L1905.11,657.4 C1905.11,657.4 1905.43,657.63 1905.43,657.63 C1915.09,664.83 1935.09,673.23 1959.63,673.23 C1985.79,673.23 2012.84,655.6 2012.84,626.1 C2012.84,599.72 1987.17,589.91 1964.53,581.25 L1964.52,581.25 Z" id="Path"></path>
            </g>
            <path d="M5.66,522.44 C39.6,546.68 106.65,579.81 193.07,579.86 L193.07,593.05 L193.07,593.05 C192.95,645.77 187.55,654.68 163.07,662.83 L163.07,673.33 L302.57,673.33 L302.57,662.83 C277.82,654.58 272.57,645.28 272.57,591.26 L272.57,565.5 C333.41,542.15 376.86,492.02 376.86,427.81 C376.86,342.89 306.51,307.31 210.27,267.68 C135.87,236.96 50.95,203.79 50.95,124.53 C50.95,45.27 111.61,12.13 177.92,12.13 C285.48,12.13 329.16,67.94 355.84,123.74 L362.31,122.12 L359.08,40.44 C338.86,27.49 287.9,0 198.95,0 C88.96,0 13.75,57.42 13.75,146.38 C13.75,223.21 63.9,262.84 173.06,305.69 C245.04,334 338.05,372.01 338.05,454.5 C338.05,497.39 311.75,533.17 272.58,552.42 L272.58,392.42 L272.66,367.95 C248.88,351.36 219.96,337.93 193.08,327.03 L193.08,567.49 C82.45,562.97 34.68,493.19 8.09,418.11 L2.84217094e-14,418.92" id="Path"></path>
            <path d="M163.08,158.81 C187.83,167.06 193.08,189.57 193.08,243.57 L193.08,247.15 C199.16,249.65 204.55,251.9 210.11,254.2 C232.47,263.47 253.39,272.47 272.59,281.5 L272.59,243.56 C272.59,189.55 277.84,167.05 302.59,158.8 L302.59,148.3 L163.09,148.3 L163.09,158.8 L163.08,158.81 Z" id="Path"></path>
            <g id="Group">
                <g id="Rectangle">
                    <rect x="487.36" y="200.21" width="11.8" height="126.29"></rect>
                    <rect x="510.08" y="200.21" width="11.8" height="126.29"></rect>
                    <rect x="532.81" y="200.21" width="11.8" height="126.29"></rect>
                </g>
                <path d="M446.42,148.31 L446.42,158.81 C460.32,163.44 468.06,172.57 472.18,189.25 L560.14,189.25 C564.27,172.57 572.02,163.44 585.91,158.81 L585.91,148.31 L446.41,148.31 L446.42,148.31 Z" id="Path"></path>
            </g>
            <path d="M555.7,578.07 L555.7,337.43 L476.2,337.43 L476.2,352.57 L366.84,352.57 C366.84,352.57 373.43,362.65 377.05,370.3 C381.83,380.43 383.88,388.22 383.88,388.22 L476.2,388.24 L476.2,578.07 C476.2,632.09 470.96,654.58 446.21,662.83 L446.21,673.33 L585.71,673.33 L585.71,662.83 C560.96,654.58 555.7,632.08 555.7,578.07 Z" id="Path"></path>
        </g>
    </g>
</svg>